<?xml version="1.0"?>
<svg width="512" height="512" xmlns="http://www.w3.org/2000/svg" clip-rule="evenodd" fill-rule="evenodd">
  <g fill-rule="nonzero" id="svg_1">
   <path d="m255,1c70.68,0 134.69,28.66 181.01,74.99c46.33,46.32 74.99,110.33 74.99,181.01c0,70.68 -28.66,134.69 -74.99,181.01c-46.32,46.33 -110.33,74.99 -181.01,74.99c-70.68,0 -134.69,-28.66 -181.01,-74.99c-46.33,-46.32 -74.99,-110.33 -74.99,-181.01c0,-70.68 28.66,-134.69 74.99,-181.01c46.32,-46.33 110.33,-74.99 181.01,-74.99z" fill="#0dd70d" id="svg_2"/>
   <path d="m255,20.6c65.28,0 124.38,26.46 167.16,69.24c42.78,42.78 69.25,101.88 69.25,167.16c0,65.28 -26.47,124.38 -69.25,167.16c-42.78,42.78 -101.88,69.25 -167.16,69.25c-65.28,0 -124.38,-26.47 -167.16,-69.25c-42.78,-42.78 -69.24,-101.88 -69.24,-167.16c0,-65.28 26.46,-124.38 69.24,-167.16c42.78,-42.78 101.88,-69.24 167.16,-69.24z" fill="#fff" id="svg_3" transform="matrix(1 0 0 1 0 0)"/>
   <path d="m55.26,340.4l399.48,0c-32.65,78.12 -109.78,133.01 -199.74,133.01c-89.96,0 -167.09,-54.89 -199.74,-133.01z" fill="#43b02a" id="svg_4" transform="matrix(1 0 0 1 0 0)"/>
   <path d="m466.02,208.83l-422.04,0c21.9,-96.33 108.06,-168.24 211.02,-168.24c102.96,0 189.12,71.91 211.02,168.24z" fill="#0072ce" id="svg_5" transform="matrix(1 0 0 1 0 0)"/>
   <path d="m451.09,348.63l-392.18,0a213.04,213.04 0 0 1 -3.65,-8.23l399.48,0a214.62,214.62 0 0 1 -3.65,8.23zm-405.06,-148.02l417.94,0a217.37,217.37 0 0 1 2.05,8.22l-422.04,0c0.63,-2.76 1.32,-5.5 2.05,-8.22z" fill="#da291c" id="svg_6" transform="matrix(1 0 0 1 0 0)"/>
   <path d="m178.05,86.17a49.51,49.51 0 0 0 -8.22,-0.68c-27.25,0 -49.34,22.09 -49.34,49.33c0,27.25 22.09,49.34 49.34,49.34c2.8,0 5.54,-0.23 8.22,-0.68c-23.34,-3.92 -41.12,-24.21 -41.12,-48.66c0,-24.44 17.78,-44.73 41.12,-48.65zm102.54,6.14l-2.22,-6.82l-2.21,6.82l-7.17,0l5.8,4.21l-2.22,6.82l5.8,-4.21l5.8,4.21l-2.22,-6.82l5.8,-4.21l-7.16,0zm0,39.47l-2.22,-6.82l-2.21,6.82l-7.17,0l5.8,4.21l-2.22,6.82l5.8,-4.22l5.8,4.22l-2.22,-6.82l5.8,-4.21l-7.16,0zm-39.47,0l-2.22,-6.82l-2.21,6.82l-7.17,0l5.8,4.21l-2.22,6.82l5.8,-4.22l5.8,4.22l-2.22,-6.82l5.81,-4.21l-7.17,0zm78.94,39.47l-2.22,-6.82l-2.21,6.82l-7.17,0l5.8,4.21l-2.22,6.82l5.8,-4.21l5.8,4.21l-2.21,-6.82l5.8,-4.21l-7.17,0zm-39.47,0l-2.22,-6.82l-2.21,6.82l-7.17,0l5.8,4.21l-2.22,6.82l5.8,-4.21l5.8,4.21l-2.22,-6.82l5.8,-4.21l-7.16,0zm39.47,-78.94l-2.22,-6.82l-2.21,6.82l-7.17,0l5.8,4.21l-2.22,6.82l5.8,-4.21l5.8,4.21l-2.21,-6.82l5.8,-4.21l-7.17,0zm0,39.47l-2.22,-6.82l-2.21,6.82l-7.17,0l5.8,4.21l-2.22,6.82l5.8,-4.22l5.8,4.22l-2.21,-6.82l5.8,-4.21l-7.17,0zm39.47,-39.47l-2.22,-6.82l-2.21,6.82l-7.17,0l5.8,4.21l-2.22,6.82l5.8,-4.21l5.8,4.21l-2.21,-6.82l5.8,-4.21l-7.17,0zm0,39.47l-2.22,-6.82l-2.21,6.82l-7.17,0l5.8,4.21l-2.22,6.82l5.8,-4.22l5.8,4.22l-2.21,-6.82l5.8,-4.21l-7.17,0zm-157.88,39.47l-2.22,-6.82l-2.22,6.82l-7.17,0l5.81,4.21l-2.22,6.82l5.8,-4.21l5.8,4.21l-2.22,-6.82l5.8,-4.21l-7.16,0zm39.47,0l-2.22,-6.82l-2.21,6.82l-7.17,0l5.8,4.21l-2.22,6.82l5.8,-4.21l5.8,4.21l-2.22,-6.82l5.81,-4.21l-7.17,0zm118.41,0l-2.22,-6.82l-2.21,6.82l-7.17,0l5.8,4.21l-2.22,6.82l5.8,-4.21l5.8,4.21l-2.21,-6.82l5.8,-4.21l-7.17,0z" fill="#fff" id="svg_7"/>
  </g>
</svg>