<?xml version="1.0"?>
<svg width="512" height="512" xmlns="http://www.w3.org/2000/svg" clip-rule="evenodd" fill-rule="evenodd">
  <g fill-rule="nonzero" id="svg_1">
   <path d="m256,0c70.68,0 134.69,28.66 181.01,74.99c46.33,46.32 74.99,110.33 74.99,181.01c0,70.68 -28.66,134.69 -74.99,181.01c-46.32,46.33 -110.33,74.99 -181.01,74.99c-70.68,0 -134.69,-28.66 -181.01,-74.99c-46.33,-46.32 -74.99,-110.33 -74.99,-181.01c0,-70.68 28.66,-134.69 74.99,-181.01c46.32,-46.33 110.33,-74.99 181.01,-74.99z" fill="#0dd70d" id="svg_2"/>
   <path d="m256,19.6c65.28,0 124.38,26.46 167.16,69.24c42.78,42.78 69.25,101.88 69.25,167.16s-26.47,124.38 -69.25,167.16c-42.78,42.78 -101.88,69.25 -167.16,69.25c-65.28,0 -124.38,-26.47 -167.16,-69.25c-42.78,-42.78 -69.24,-101.88 -69.24,-167.16s26.46,-124.38 69.24,-167.16c42.78,-42.78 101.88,-69.24 167.16,-69.24z" fill="#fff" id="svg_3"/>
   <path d="m472.4,256.23l-432.8,0l-0.01,-0.23c0,-119.52 96.89,-216.41 216.41,-216.41c119.52,0 216.41,96.89 216.41,216.41l0,0.23l-0.01,0z" fill="#fff" id="svg_4"/>
   <path d="m39.6,256.23l432.8,0c-0.12,119.41 -96.96,216.18 -216.4,216.18c-119.44,0 -216.28,-96.77 -216.4,-216.18z" fill="#e4181c" id="svg_5" transform="matrix(1 0 0 1 0 0)"/>
   <path d="m52.04,183.55l407.92,0c8.05,22.65 12.45,47.04 12.45,72.45c0,25.59 -4.45,50.13 -12.61,72.92l-407.6,0c-8.15,-22.79 -12.61,-47.33 -12.61,-72.92c0,-25.41 4.4,-49.8 12.45,-72.45z" fill="#1c3578" id="svg_6" transform="matrix(1 0 0 1 0 0)"/>
  </g>
</svg>