<svg width="538" height="480" viewBox="0 0 538 480" fill="none" xmlns="http://www.w3.org/2000/svg">
<path d="M538 1098.39C645.704 1080.95 691.576 943.67 767.236 860.139C823.917 797.562 880.744 741.044 926.748 669.202C981.753 583.302 1072.94 503.046 1062.08 399.697C1051.24 296.553 946.827 238.694 874.239 169.499C810.357 108.602 746.051 48.9605 664.537 20.7331C581.428 -8.04697 494.985 -0.47752 407.964 8.03403C301.555 18.4426 168.773 -11.6178 100.415 75.9104C31.8041 163.761 108.599 298.732 92.656 411.761C76.5586 525.89 -27.3733 628.999 6.96536 738.454C41.1187 847.318 168.256 880.827 259.141 942.428C349.551 1003.71 432.071 1115.55 538 1098.39Z" fill="#1A7541"/>
</svg>
