<svg width="487" height="435" viewBox="0 0 487 435" fill="none" xmlns="http://www.w3.org/2000/svg">
<path d="M0 410.046C79.0387 404.793 157.507 414.012 231.46 383.828C318.001 348.506 412.621 308.99 458.228 223.018C504.739 135.342 481.032 27.8408 473.567 -72.5627C465.607 -179.629 472.251 -294.548 413.271 -381.636C352.465 -471.419 254.5 -537.194 151.157 -548.625C52.7573 -559.511 -29.8453 -480.615 -121.445 -440.789C-202.335 -405.619 -293.419 -393.788 -355.536 -328.32C-420.053 -260.323 -464.197 -168.614 -471.175 -72.1975C-477.959 21.5446 -431.397 106.62 -393.143 191.342C-355.631 274.42 -327.48 373.219 -250.789 415.882C-175.132 457.971 -85.18 415.709 0 410.046Z" fill="#165F35"/>
</svg>
